# xmcd CD database file
#
# Track frame offsets:
#	150
#	17423
#	30081
#	46966
#	60078
#	73269
#	88427
#	103821
#	122033
#	138456
#	151302
#	164867
#	177320
#	194376
#
# Disc length: 2924 seconds
#
# Revision: 0
# Processed by: cddbd v1.5.2PL0 Copyright (c) Steve Scherf et al.
# Submitted via: CDex 1.50
#
DISCID=be0b6a0e
DTITLE=Various Artist - Mr. Music Country 02-07
DYEAR=2007
DGENRE=Country
TTITLE0=George Jones - Beer, Bait and Ammo
TTITLE1=Rhonda Henderson - Piece of Heaven
TTITLE2=Red Jenkins and Billy Yates - She Took His Breath Away
TTITLE3=Lorrie Morgan - Something Fishy's Going On
TTITLE4=Jackson Taylor Band - Modern Day Joad
TTITLE5=Gary Shiebler with Marcia Ramirez - As Country Could Be
TTITLE6=Darrel McCall - Willie B
TTITLE7=Tanya Dennis - Ring Around The Moon
TTITLE8=Cody McCarver - Redneck Love
TTITLE9=Trent Summar - Hayride
TTITLE10=Jerry Lee Lewis with Kris Kristofferson - The Pilgrim
TTITLE11=Kristin Major - Don't You Believe Him
TTITLE12=The Roys - Flying Without Wings
TTITLE13=Tom Wurth - Higher Ground
EXTD=YEAR: 2007
EXTT0=
EXTT1=
EXTT2=
EXTT3=
EXTT4=
EXTT5=
EXTT6=
EXTT7=
EXTT8=
EXTT9=
EXTT10=
EXTT11=
EXTT12=
EXTT13=
PLAYORDER=
